<svg width="20" height="19" viewBox="0 0 20 19" fill="none" xmlns="http://www.w3.org/2000/svg">
<path d="M11.3213 9.49998L6.91058 13.6902C6.58514 13.9994 6.58514 14.5006 6.91058 14.8098C7.23602 15.1189 7.76366 15.1189 8.08909 14.8098L13.0891 10.0598C13.4145 9.75061 13.4145 9.24935 13.0891 8.94019L8.08909 4.19019C7.76366 3.88102 7.23602 3.88102 6.91058 4.19019C6.58514 4.49935 6.58514 5.00061 6.91058 5.30977L11.3213 9.49998Z" fill="black"/>
<mask id="mask0" mask-type="alpha" maskUnits="userSpaceOnUse" x="6" y="3" width="8" height="13">
<path d="M11.3213 9.49998L6.91058 13.6902C6.58514 13.9994 6.58514 14.5006 6.91058 14.8098C7.23602 15.1189 7.76366 15.1189 8.08909 14.8098L13.0891 10.0598C13.4145 9.75061 13.4145 9.24935 13.0891 8.94019L8.08909 4.19019C7.76366 3.88102 7.23602 3.88102 6.91058 4.19019C6.58514 4.49935 6.58514 5.00061 6.91058 5.30977L11.3213 9.49998Z" fill="white"/>
</mask>
<g mask="url(#mask0)">
<rect width="20" height="19" fill="black"/>
</g>
</svg>
