<svg width="20" height="19" viewBox="0 0 20 19" fill="none" xmlns="http://www.w3.org/2000/svg">
<path d="M8.67867 9.49998L13.0894 13.6902C13.4149 13.9994 13.4149 14.5006 13.0894 14.8098C12.764 15.1189 12.2363 15.1189 11.9109 14.8098L6.91091 10.0598C6.58547 9.75061 6.58547 9.24935 6.91091 8.94019L11.9109 4.19019C12.2363 3.88102 12.764 3.88102 13.0894 4.19019C13.4149 4.49935 13.4149 5.00061 13.0894 5.30977L8.67867 9.49998Z" fill="black"/>
<mask id="mask0" mask-type="alpha" maskUnits="userSpaceOnUse" x="6" y="3" width="8" height="13">
<path d="M8.67867 9.49998L13.0894 13.6902C13.4149 13.9994 13.4149 14.5006 13.0894 14.8098C12.764 15.1189 12.2363 15.1189 11.9109 14.8098L6.91091 10.0598C6.58547 9.75061 6.58547 9.24935 6.91091 8.94019L11.9109 4.19019C12.2363 3.88102 12.764 3.88102 13.0894 4.19019C13.4149 4.49935 13.4149 5.00061 13.0894 5.30977L8.67867 9.49998Z" fill="white"/>
</mask>
<g mask="url(#mask0)">
<rect width="20" height="19" transform="matrix(-1 0 0 1 20 0)" fill="black"/>
</g>
</svg>
